# xmcd CD database file
#
# Track frame offsets:
#	150
#	11811
#	22637
#	31482
#	42853
#	53909
#	64617
#	76483
#	88079
#	100371
#	113103
#	125907
#	138505
#	149535
#	163505
#	177075
#	190762
#	203336
#	216233
#	227334
#	240610
#	253222
#	262837
#	274124
#	284484
#	295123
#	308338
#	318466
#
# Disc length: 4392 seconds
#
# Revision: 1
# Processed by: cddbd v1.4PL0 Copyright (c) Steve Scherf et al.
# Submitted via: CDex 1.51
#
DISCID=8c11261c
DTITLE=Celia Cruz - Salsa Queen
DYEAR=2003
DGENRE=Salsa
TTITLE0=Rico changui
TTITLE1=Juventud del presente
TTITLE2=Yo te invito a mi pais
TTITLE3=Sabroso guaguanco
TTITLE4=Mis Anhelos
TTITLE5=Suavecito
TTITLE6=Yemaya
TTITLE7=Mi bomba sono
TTITLE8=Nostalgia habanera
TTITLE9=Mango mangue
TTITLE10=Virgen de la macarena
TTITLE11=La clave de oro
TTITLE12=El que siembra su maiz
TTITLE13=Me voy pa' el pueblo
TTITLE14=Esperame en el cielo
TTITLE15=Sun, sun babae
TTITLE16=Imoye
TTITLE17=Retozon
TTITLE18=Quizas, quizas, quizas
TTITLE19=El eco y el carretero
TTITLE20=Piel canela
TTITLE21=No quiero llorar
TTITLE22=Pegao
TTITLE23=Lo tuyo es mio
TTITLE24=Pila pilandera
TTITLE25=Egoismo
TTITLE26=Hay comentario
TTITLE27=Rumbanacoa
EXTD=YEAR: 2003
EXTT0=
EXTT1=
EXTT2=
EXTT3=
EXTT4=
EXTT5=
EXTT6=
EXTT7=
EXTT8=
EXTT9=
EXTT10=
EXTT11=
EXTT12=
EXTT13=
EXTT14=
EXTT15=
EXTT16=
EXTT17=
EXTT18=
EXTT19=
EXTT20=
EXTT21=
EXTT22=
EXTT23=
EXTT24=
EXTT25=
EXTT26=
EXTT27=
PLAYORDER=
